<svg id="Layer_1" data-name="Layer 1" xmlns="http://www.w3.org/2000/svg" viewBox="0 0 51.59 20.37"><defs><style>.cls-1{fill:#ffbc00;}</style></defs><title>xoicon_v3</title><path class="cls-1" d="M13,32.28,6.59,22.63H14l2.88,4.79,2.88-4.79H27l-6.41,9.61,6.55,9.86H19.77l-3-5-3.06,5H6.49Z" transform="translate(-6.49 -22.2)"/><path class="cls-1" d="M27.19,32.46v-.08c0-5.54,4.53-10.18,10.79-10.18s10.73,4.57,10.73,10.11v.07c0,5.55-4.53,10.19-10.8,10.19S27.19,38,27.19,32.46Zm14.86,0v-.08A4.23,4.23,0,0,0,37.91,28a4.08,4.08,0,0,0-4.07,4.32v.07A4.23,4.23,0,0,0,38,36.78,4.08,4.08,0,0,0,42.05,32.46Z" transform="translate(-6.49 -22.2)"/><path class="cls-1" d="M51,35.08h7.12v7H51Z" transform="translate(-6.49 -22.2)"/></svg>